<?xml version="1.0" encoding="UTF-8"?>
<svg width="68px" height="80px" viewBox="0 0 68 80" version="1.1" xmlns="http://www.w3.org/2000/svg" xmlns:xlink="http://www.w3.org/1999/xlink">
    <!-- Generator: Sketch 51.2 (57519) - http://www.bohemiancoding.com/sketch -->
    <title>arriendo_herramientas</title>
    <desc>Created with Sketch.</desc>
    <defs></defs>
    <g id="Iconos" stroke="none" stroke-width="1" fill="none" fill-rule="evenodd">
        <g id="Artboard" transform="translate(-118.000000, -1408.000000)" fill="#FFFFFF">
            <path d="M161.655236,1458 L161.655236,1442.66323 C164.47237,1441.63011 166.491384,1438.84514 166.491384,1435.56971 C166.491384,1431.41474 163.243456,1428.04642 159.23665,1428.04642 C158.966743,1428.04642 158.700248,1428.06305 158.438018,1428.09295 L152,1414.2796 C154.264353,1413.45189 156.699489,1413 159.236991,1413 C171.256388,1413 181,1423.10461 181,1435.56971 C181,1447.18677 172.536314,1456.75225 161.655236,1458 Z M167,1468 L167,1461.96379 C168.743218,1461.47055 170.416058,1460.8099 172,1460 L172,1468 L167,1468 Z M123,1478 L176,1478 L176,1473 L123,1473 L123,1478 Z M157,1455 C148.133314,1453.89424 141.105937,1446.86703 140,1438 L152.5192,1438 C153.257414,1440.08826 154.911911,1441.74276 157,1442.4808 L157,1455 Z M147.358511,1417 L154,1431.14583 C153.230858,1431.94504 152.631247,1432.91698 152.259087,1434 L137,1434 C137.769142,1426.83729 141.716432,1420.66173 147.358511,1417 Z M176.285714,1456.7138 C182.218671,1451.66983 186,1444.03948 186,1435.50004 C186,1420.3122 174.039501,1408 159.285671,1408 C144.531671,1408 132.571343,1420.3122 132.571343,1435.50004 L132.571,1437.99998 L135.093771,1437.99998 L135.093771,1438.00015 L135.120501,1438.00015 C136.259972,1449.81088 145.383618,1459.20281 156.856972,1460.37561 L156.856972,1462.9999 L159.285671,1462.9999 C160.104548,1462.9999 160.914172,1462.95968 161.714029,1462.8856 L161.714029,1467.99996 L127.7136,1467.99996 L127.7136,1460.49996 L122.856714,1460.49996 L122.856714,1467.99996 L118,1467.99996 L118,1482.99994 L122.856714,1482.99994 L122.856714,1488 L127.7136,1488 L127.7136,1482.99994 L171.428657,1482.99994 L171.428657,1488 L176.285714,1488 L176.285714,1482.99994 L181.142771,1482.99994 L181.142771,1467.99996 L176.285714,1467.99996 L176.285714,1456.7138 Z" id="arriendo_herramientas"></path>
        </g>
    </g>
</svg>