<?xml version="1.0" encoding="UTF-8"?>
<svg width="70px" height="70px" viewBox="0 0 70 70" version="1.1" xmlns="http://www.w3.org/2000/svg" xmlns:xlink="http://www.w3.org/1999/xlink">
    <!-- Generator: Sketch 51.2 (57519) - http://www.bohemiancoding.com/sketch -->
    <title>dimensionado</title>
    <desc>Created with Sketch.</desc>
    <defs></defs>
    <g id="Iconos" stroke="none" stroke-width="1" fill="none" fill-rule="evenodd">
        <g id="Artboard" transform="translate(-117.000000, -1232.000000)" fill="#FFFFFF">
            <path d="M183,1245.71453 L176.464297,1245.71453 L176.464297,1243.53586 L172.10711,1243.53586 L172.10711,1245.71453 L167.749769,1245.71453 L167.749769,1243.53586 L163.392736,1243.53586 L163.392736,1245.71453 L159.03555,1245.71453 L159.03555,1243.53586 L154.678517,1243.53586 L154.678517,1245.71453 L150.321176,1245.71453 L150.321176,1243.53586 L145.963989,1243.53586 L145.963989,1245.71453 L141.606956,1245.71453 L141.606956,1243.53586 L137.249616,1243.53586 L137.249616,1245.71453 L130.714374,1245.71453 L130.714374,1254.42844 L128.535703,1254.42844 L128.535703,1258.78547 L130.714374,1258.78547 L130.714374,1263.14281 L128.535703,1263.14281 L128.535703,1267.49985 L130.714374,1267.49985 L130.714374,1271.85703 L128.535703,1271.85703 L128.535703,1276.21437 L130.714374,1276.21437 L130.714374,1280.57141 L128.535703,1280.57141 L128.535703,1284.92859 L130.714374,1284.92859 L130.714374,1289.28593 L128.535703,1289.28593 L128.535703,1293.64281 L130.714374,1293.64281 L130.714374,1298 L122,1298 L122,1237 L183,1237 L183,1245.71453 Z M117,1232 L117,1302 L134.500039,1302 L134.500039,1249.50004 L187,1249.50004 L187,1232 L117,1232 Z M125.5,1243 C126.880697,1243 128,1241.88066 128,1240.49991 C128,1239.11917 126.880697,1238 125.5,1238 C124.119303,1238 123,1239.11917 123,1240.49991 C123,1241.88066 124.119303,1243 125.5,1243 Z" id="dimensionado"></path>
        </g>
    </g>
</svg>