<?xml version="1.0" encoding="UTF-8"?>
<svg width="74px" height="74px" viewBox="0 0 74 74" version="1.1" xmlns="http://www.w3.org/2000/svg" xmlns:xlink="http://www.w3.org/1999/xlink">
    <!-- Generator: Sketch 51.2 (57519) - http://www.bohemiancoding.com/sketch -->
    <title>entrega_herramientas</title>
    <desc>Created with Sketch.</desc>
    <defs></defs>
    <g id="Iconos" stroke="none" stroke-width="1" fill="none" fill-rule="evenodd">
        <g id="Artboard" transform="translate(-115.000000, -1589.000000)" fill="#FFFFFF">
            <g id="entrega_herramientas" transform="translate(115.000000, 1589.000000)">
                <path d="M39.1966499,0 L39.1966499,6.93754079 L27.6364231,6.93754079 L23,6.93754079 L23,11.5622961 L23,16.1875408 L23,20.8124592 L27.6364231,20.8124592 L39.1966499,20.8124592 L39.1966499,41.6250816 L36.8783566,41.6250816 L36.8783566,74 L36.9091058,74 L41.5149433,74 L50.818048,74 L55.4544711,74 L55.4544711,69.3752447 L55.4544711,46.2501632 L55.4544711,41.6252447 L55.4544711,41.6250816 L53.1361778,41.6250816 L53.1361778,20.8124592 L60.0907307,20.8124592 L60.0907307,23.1249184 L60.0907307,25.4373776 L74,25.4373776 L74,2.31229605 L60.0907307,2.31229605 L60.0907307,4.62491842 L60.0907307,6.93754079 L53.1361778,6.93754079 L53.1361778,4.62491842 L53.1361778,0 L39.1966499,0 Z M43.8327459,6.93754079 L48.4999182,6.93754079 L48.4999182,4.62491842 L43.8327459,4.62491842 L43.8327459,6.93754079 Z M64.7273173,20.8124592 L69.3634133,20.8124592 L69.3634133,6.93754079 L64.7273173,6.93754079 L64.7273173,20.8124592 Z M27.6364231,16.1875408 L60.0907307,16.1875408 L60.0907307,11.5622961 L27.6364231,11.5622961 L27.6364231,16.1875408 Z M43.8327459,41.6254079 L48.4999182,41.6254079 L48.4999182,20.8124592 L43.8327459,20.8124592 L43.8327459,41.6254079 Z M41.5149433,69.3752447 L50.818048,69.3752447 L50.818048,46.2501632 L41.5149433,46.2501632 L41.5149433,69.3752447 Z" id="Fill-1"></path>
                <path d="M15.7509718,0 L13.5025783,0 L4.49773907,0 L2.25854789,0 L0,0 L0,32 L2.24886954,32 L4.49773907,32 L6.73677159,32 L11.2535501,32 L13.5025783,32 L15.7609675,32 L18,32 L18,0 L15.7509718,0 Z M11.2535501,27.4088275 L13.5024196,27.4088275 L13.5024196,4.57133642 L11.2535501,4.57133642 L11.2535501,27.4088275 Z M4.49773907,27.4088275 L6.73677159,27.4088275 L6.73677159,4.57133642 L4.49773907,4.57133642 L4.49773907,27.4088275 Z" id="Fill-2"></path>
                <path d="M0,35 L0,39.5881591 L6.77299867,39.5881591 L6.77299867,58.131308 L4.51337455,58.131308 L4.51337455,62.5294403 L2.26343408,62.5294403 L2.26343408,71.7059204 L4.51337455,71.7059204 L4.51337455,74 L13.5131364,74 L13.5131364,71.7059204 L15.7632356,71.7059204 L15.7632356,62.5294403 L13.5131364,62.5294403 L13.5131364,58.131308 L11.2925644,58.131308 L11.2925644,39.5881591 L18,39.5881591 L18,35 L0,35 Z M6.76315627,69.4120027 L11.2633547,69.4120027 L11.2633547,62.7194671 L6.76315627,62.7194671 L6.76315627,69.4120027 Z" id="Fill-3"></path>
            </g>
        </g>
    </g>
</svg>