<?xml version="1.0" encoding="UTF-8"?>
<svg width="71px" height="81px" viewBox="0 0 71 81" version="1.1" xmlns="http://www.w3.org/2000/svg" xmlns:xlink="http://www.w3.org/1999/xlink">
    <!-- Generator: Sketch 51.2 (57519) - http://www.bohemiancoding.com/sketch -->
    <title>post_venta</title>
    <desc>Created with Sketch.</desc>
    <defs>
        <polygon id="path-1" points="0 0 71 0 71 81 0 81"></polygon>
    </defs>
    <g id="Iconos" stroke="none" stroke-width="1" fill="none" fill-rule="evenodd">
        <g id="Artboard" transform="translate(-117.000000, -1047.000000)">
            <g id="post_venta" transform="translate(117.000000, 1047.000000)">
                <mask id="mask-2" fill="white">
                    <use xlink:href="#path-1"></use>
                </mask>
                <g id="Clip-2"></g>
                <path d="M5.49339801,75.9374107 L9.75304019,22.7812054 L20.2855865,22.7812054 L20.2855865,28.5226285 C18.7700491,29.3980937 17.7497316,31.0325812 17.7497316,32.9062054 C17.7497316,35.7020862 20.0202646,37.9686161 22.8214414,37.9686161 C25.6220814,37.9686161 27.8926143,35.7020862 27.8926143,32.9062054 C27.8926143,31.0325812 26.8722968,29.3980937 25.3569384,28.5226285 L25.3569384,22.7812054 L45.6428827,22.7812054 L45.6428827,28.5226285 C44.1275243,29.3980937 43.1072068,31.0325812 43.1072068,32.9062054 C43.1072068,35.7020862 45.3779186,37.9686161 48.1785586,37.9686161 C50.9795565,37.9686161 53.2502684,35.7020862 53.2502684,32.9062054 C53.2502684,31.0325812 52.229772,29.3980937 50.7144135,28.5226285 L50.7144135,22.7812054 L61.2469598,22.7812054 L65.5064231,75.9374107 L5.49339801,75.9374107 Z M25.3569384,10.125 C25.3569384,8.06081659 29.3081416,5.0624107 35.5,5.0624107 C41.6916795,5.0624107 45.6428827,8.06081659 45.6428827,10.125 L45.6428827,17.7186161 L25.3569384,17.7186161 L25.3569384,10.125 Z M65.928827,17.7186161 L50.7144135,17.7186161 L50.7144135,10.125 C50.7144135,4.53305964 43.9026358,0 35.5,0 C27.0973642,0 20.2855865,4.53305964 20.2855865,10.125 L20.2855865,17.7186161 L5.07117299,17.7186161 L0,81 L71,81 L65.928827,17.7186161 Z" id="Fill-1" fill="#FFFFFF" mask="url(#mask-2)"></path>
            </g>
        </g>
    </g>
</svg>