<?xml version="1.0" encoding="UTF-8"?>
<svg width="49px" height="81px" viewBox="0 0 49 81" version="1.1" xmlns="http://www.w3.org/2000/svg" xmlns:xlink="http://www.w3.org/1999/xlink">
    <!-- Generator: Sketch 51.2 (57519) - http://www.bohemiancoding.com/sketch -->
    <title>preparacion_pintura</title>
    <desc>Created with Sketch.</desc>
    <defs></defs>
    <g id="Iconos" stroke="none" stroke-width="1" fill="none" fill-rule="evenodd">
        <g id="Artboard" transform="translate(-128.000000, -337.000000)" fill="#FFFFFF">
            <path d="M152.000144,411 C153.104725,411 154,409.880627 154,408.5 C154,407.119373 153.104725,406 152.000144,406 C150.895563,406 150,407.119373 150,408.5 C150,409.880627 150.895563,411 152.000144,411 Z M167,357 L172,357 L172,342 L167,342 L167,357 Z M133,368 L172,368 L172,363 L133,363 L133,368 Z M172,381.963311 L159.812479,381.963311 L159.812479,381.999824 L157.375215,381.999824 L157.375215,412 L147.624785,412 L147.624785,381.999824 L145.18735,381.999824 L145.18735,381.963311 L133,381.963311 L133,372 L172,372 L172,381.963311 Z M133,357 L138,357 L138,342 L133,342 L133,357 Z M143,357 L150,357 L150,342 L143,342 L143,357 Z M155,357 L162,357 L162,342 L155,342 L155,357 Z M128,337 L128,387.588098 L142.700104,387.588098 L142.700104,418 L162.299896,418 L162.299896,387.588098 L177,387.588098 L177,337 L128,337 Z" id="preparacion_pintura"></path>
        </g>
    </g>
</svg>