<?xml version="1.0" encoding="UTF-8"?>
<svg width="59px" height="83px" viewBox="0 0 59 83" version="1.1" xmlns="http://www.w3.org/2000/svg" xmlns:xlink="http://www.w3.org/1999/xlink">
    <!-- Generator: Sketch 51.2 (57519) - http://www.bohemiancoding.com/sketch -->
    <title>retiro_tienda</title>
    <desc>Created with Sketch.</desc>
    <defs></defs>
    <g id="Iconos" stroke="none" stroke-width="1" fill="none" fill-rule="evenodd">
        <g id="Artboard" transform="translate(-123.000000, -143.000000)" fill="#FFFFFF">
            <path d="M147,182 L157.799962,182 L157.799962,187.596367 L163.200038,187.596367 L163.200038,182 L174,182 L174,210 L147,210 L147,182 Z M153,160 L158.333208,160 L158.333208,165.6668 L163.666604,165.6668 L163.666604,160 L169,160 L169,177 L153,177 L153,160 Z M141,220.499788 C141,221.328207 140.328535,222 139.499788,222 C138.671253,222 138,221.328207 138,220.499788 C138,219.67137 138.671253,219 139.499788,219 C140.328535,219 141,219.67137 141,220.499788 Z M179.318431,209.417412 L179.318431,181.733503 L179.318431,176.199922 L173.954537,176.199922 L173.954537,159.600156 L173.954537,156.833366 L173.954537,154.066771 L147.136389,154.066771 L147.136389,156.833366 L147.136389,159.600156 L147.136389,176.199922 L141.772684,176.199922 L141.772684,181.733503 L141.772684,209.417412 L139.090737,209.417412 L139.090737,148.533581 L139.090737,143 L133.72741,143 L123,143 L123,148.533581 L133.72741,148.533581 L133.72741,209.417412 L133.72741,212.184202 L133.72741,214.950993 L138.683166,214.950993 C135.91153,215.166105 133.72741,217.552447 133.72741,220.466615 C133.72741,223.522694 136.12875,226 139.090737,226 C142.053292,226 144.454631,223.522694 144.454631,220.466615 C144.454631,217.552447 142.270511,215.166105 139.498687,214.950993 L176.636484,214.950993 L176.636484,220.466615 L182,220.466615 L182,214.950993 L182,212.234174 L182,209.417412 L179.318431,209.417412 Z" id="retiro_tienda"></path>
        </g>
    </g>
</svg>