<?xml version="1.0" encoding="UTF-8"?>
<svg width="68px" height="81px" viewBox="0 0 68 81" version="1.1" xmlns="http://www.w3.org/2000/svg" xmlns:xlink="http://www.w3.org/1999/xlink">
    <!-- Generator: Sketch 51.2 (57519) - http://www.bohemiancoding.com/sketch -->
    <title>servicios_profesionales</title>
    <desc>Created with Sketch.</desc>
    <defs></defs>
    <g id="Iconos" stroke="none" stroke-width="1" fill="none" fill-rule="evenodd">
        <g id="Artboard" transform="translate(-118.000000, -692.000000)" fill="#FFFFFF">
            <path d="M123,735 L181,735 L181,730 L123,730 L123,735 Z M171,747.908939 C171,759.538626 162.252254,769 151.499914,769 C140.747402,769 132,759.538626 132,747.908939 L132,740 L171,740 L171,747.908939 Z M132,719.968406 C132,716.438942 132.886039,713.119276 134.438844,710.232517 C134.438328,710.233227 134.437984,710.234292 134.43764,710.235357 C135.989412,713.121761 136.874764,716.440007 136.874764,719.968406 L141.749699,719.968406 C141.749699,714.753106 140.212029,709.908768 137.578848,705.891196 C140.583505,702.726482 144.589599,700.578097 149.062618,700 L149.062618,719.968406 L153.937382,719.968406 L153.937382,700 C158.412293,700.578275 162.419935,702.728612 165.425451,705.895811 C162.794334,709.912318 161.257352,714.755236 161.257352,719.968406 L166.132632,719.968406 C166.132632,716.442847 167.016607,713.126908 168.566488,710.241924 C170.116025,713.126908 171,716.442847 171,719.968406 L171,725 L132,725 L132,719.968406 Z M186,729.968711 L186,724.90649 L176.286008,724.90649 L176.286008,719.843733 C176.286008,706.718213 166.701042,695.926905 154.428798,694.656929 L154.428798,692 L149.571888,692 L149.571888,694.656929 C137.299643,695.926905 127.714335,706.718213 127.714335,719.843733 L127.714335,724.90649 L118,724.90649 L118,740.093867 L127.714335,740.093867 L127.714335,747.687467 C127.714335,761.667019 138.587679,773 152.000257,773 C165.413006,773 176.286008,761.667019 176.286008,747.687467 L176.286008,740.093867 L186,740.093867 L186,735.031468 L185.992975,735.031468 L185.992975,729.968711 L186,729.968711 Z M143.500176,748 C144.880618,748 146,746.880697 146,745.5 C146,744.119303 144.880618,743 143.500176,743 C142.119382,743 141,744.119303 141,745.5 C141,746.880697 142.119382,748 143.500176,748 Z M162.500176,748 C163.880618,748 165,746.880697 165,745.5 C165,744.119303 163.880618,743 162.500176,743 C161.119382,743 160,744.119303 160,745.5 C160,746.880697 161.119382,748 162.500176,748 Z" id="servicios_profesionales"></path>
        </g>
    </g>
</svg>