<?xml version="1.0" encoding="UTF-8"?>
<svg width="74px" height="62px" viewBox="0 0 74 62" version="1.1" xmlns="http://www.w3.org/2000/svg" xmlns:xlink="http://www.w3.org/1999/xlink">
    <!-- Generator: Sketch 51.2 (57519) - http://www.bohemiancoding.com/sketch -->
    <title>servicios_hogar</title>
    <desc>Created with Sketch.</desc>
    <defs></defs>
    <g id="Iconos" stroke="none" stroke-width="1" fill="none" fill-rule="evenodd">
        <g id="Artboard" transform="translate(-115.000000, -523.000000)" fill="#FFFFFF">
            <g id="Fill-37" transform="translate(115.000000, 523.000000)">
                <path d="M50.8753365,44.8587844 L69.3749694,44.8587844 L69.3749694,40.3728585 L50.8753365,40.3728585 L50.8753365,44.8587844 Z M13.8754181,26.915239 L13.8754181,17.9435454 L55.5002039,17.9435454 C60.6086707,17.9435454 64.750102,21.960417 64.750102,26.915239 L64.750102,35.8869326 L55.5002039,35.8869326 L55.5002039,26.915239 L13.8754181,26.915239 Z M4.62519375,35.8867743 L9.2503875,35.8867743 L9.2503875,8.97185184 L4.62519375,8.97185184 L4.62519375,35.8867743 Z M69.3752957,35.8869326 L69.3752957,26.915239 L69.3749694,26.915239 C69.3749694,19.4828477 63.162741,13.4577778 55.5002039,13.4577778 L55.4998776,13.4577778 L55.4998776,13.4574613 L37.0002447,13.4574613 L37.0002447,4.48576767 L46.2501428,4.48576767 L46.2501428,0 L23.125153,0 L23.125153,4.48576767 L32.375051,4.48576767 L32.375051,13.4574613 L13.8754181,13.4574613 L13.8754181,4.48576767 L0.000326315349,4.48576767 L0.000326315349,4.58071795 L0,4.58071795 L0,40.3727003 L13.8750918,40.3727003 L13.8750918,40.3720673 L13.8754181,40.3720673 L13.8754181,31.4013232 L50.8750102,31.4013232 L50.8750102,35.8869326 L46.2504691,35.8869326 L46.2504691,38.2864844 L46.2501428,38.2864844 L46.2501428,49.3448686 L74,49.3448686 L74,35.8869326 L69.3752957,35.8869326 Z M57.7176799,59.6653309 C57.7176799,60.9547557 58.7956627,62 60.1252345,62 C61.4548064,62 62.5324629,60.9547557 62.5324629,59.6653309 C62.5324629,58.3757479 60.1252345,53.6513385 60.1252345,53.6513385 C60.1252345,53.6513385 57.7176799,58.3757479 57.7176799,59.6653309 Z"></path>
            </g>
        </g>
    </g>
</svg>