<?xml version="1.0" encoding="UTF-8"?>
<svg width="74px" height="59px" viewBox="0 0 74 59" version="1.1" xmlns="http://www.w3.org/2000/svg" xmlns:xlink="http://www.w3.org/1999/xlink">
    <!-- Generator: Sketch 51.2 (57519) - http://www.bohemiancoding.com/sketch -->
    <title>soporte_tecnico</title>
    <desc>Created with Sketch.</desc>
    <defs></defs>
    <g id="Iconos" stroke="none" stroke-width="1" fill="none" fill-rule="evenodd">
        <g id="Artboard" transform="translate(-115.000000, -879.000000)" fill="#FFFFFF">
            <g id="Fill-35" transform="translate(115.000000, 879.000000)">
                <path d="M69.3751122,31.7466227 L60.1251734,31.7466227 L60.1251734,24.7249362 L46.2500204,24.7249362 L46.2500204,31.7466227 L27.7499796,31.7466227 L27.7499796,24.7249362 L13.8748266,24.7249362 L13.8748266,31.7466227 L4.62488783,31.7466227 L4.62488783,13.6234871 L69.3751122,13.6234871 L69.3751122,31.7466227 Z M50.8747451,38.7681492 L55.4999592,38.7681492 L55.4999592,29.2625234 L50.8747451,29.2625234 L50.8747451,38.7681492 Z M18.4997145,38.7681492 L23.1249286,38.7681492 L23.1249286,29.2625234 L18.4997145,29.2625234 L18.4997145,38.7681492 Z M69.3751122,54.4624127 L4.62488783,54.4624127 L4.62488783,36.28421 L13.8748266,36.28421 L13.8748266,43.3057365 L27.7499796,43.3057365 L27.7499796,36.28421 L46.2500204,36.28421 L46.2500204,43.3057365 L60.1251734,43.3057365 L60.1251734,36.28421 L69.3751122,36.28421 L69.3751122,54.4624127 Z M30.0625867,9.08605987 L43.9374133,9.08605987 L43.9374133,4.54815245 L30.0625867,4.54815245 L30.0625867,9.08605987 Z M48.5624643,9.08589979 L48.5624643,0 L43.9374133,0 L43.9374133,0.0105651859 L30.0625867,0.0105651859 L30.0625867,0 L25.4373725,0 L25.4373725,9.08589979 L0,9.08589979 L0,59 L74,59 L74,9.08589979 L48.5624643,9.08589979 Z"></path>
            </g>
        </g>
    </g>
</svg>