<?xml version="1.0" encoding="UTF-8"?>
<svg width="29px" height="68px" viewBox="0 0 29 68" version="1.1" xmlns="http://www.w3.org/2000/svg" xmlns:xlink="http://www.w3.org/1999/xlink">
    <!-- Generator: Sketch 51.2 (57519) - http://www.bohemiancoding.com/sketch -->
    <title>turno_default</title>
    <desc>Created with Sketch.</desc>
    <defs></defs>
    <g id="Iconos" stroke="none" stroke-width="1" fill="none" fill-rule="evenodd">
        <g id="Artboard" transform="translate(-138.000000, -1930.000000)" fill="#FFFFFF">
            <g id="Fill-140" transform="translate(138.000000, 1930.000000)">
                <path d="M14.5,4.2431236 C16.7844738,4.2431236 18.6427736,6.1467362 18.6427736,8.48639689 C18.6427736,10.8260576 16.7844738,12.7295205 14.5,12.7295205 C12.2155262,12.7295205 10.3572264,10.8260576 10.3572264,8.48639689 C10.3572264,6.1467362 12.2155262,4.2431236 14.5,4.2431236 Z M14.5,16.9726441 C19.076109,16.9726441 22.7856934,13.1732028 22.7856934,8.48639689 C22.7856934,3.7994413 19.076109,0 14.5,0 C9.92389102,0 6.21430659,3.7994413 6.21430659,8.48639689 C6.21430659,13.1732028 9.92389102,16.9726441 14.5,16.9726441 Z M24.8572264,42.5406597 L20.7144527,42.5406597 L20.7144527,63.7567267 L16.571533,63.7567267 L16.571533,42.5408093 L12.428467,42.5408093 L12.428467,63.7567267 L8.28554726,63.7567267 L8.28554726,42.5406597 L4.14277363,42.5406597 L4.14277363,21.3245926 L24.8572264,21.3245926 L24.8572264,42.5406597 Z M0,17.081469 L0,46.7837832 L4.14277363,46.7837832 L4.14277363,68 L24.8572264,68 L24.8572264,46.7837832 L29,46.7837832 L29,17.081469 L0,17.081469 Z"></path>
            </g>
        </g>
    </g>
</svg>