<?xml version="1.0" encoding="UTF-8"?>
<svg width="53px" height="67px" viewBox="0 0 53 67" version="1.1" xmlns="http://www.w3.org/2000/svg" xmlns:xlink="http://www.w3.org/1999/xlink">
    <!-- Generator: Sketch 51.2 (57519) - http://www.bohemiancoding.com/sketch -->
    <title>venta_internet</title>
    <desc>Created with Sketch.</desc>
    <defs>
        <polygon id="path-1" points="0 0 53 0 53 67 0 67"></polygon>
    </defs>
    <g id="Iconos" stroke="none" stroke-width="1" fill="none" fill-rule="evenodd">
        <g id="Artboard" transform="translate(-126.000000, -1763.000000)">
            <g id="venta_internet" transform="translate(126.000000, 1763.000000)">
                <mask id="mask-2" fill="white">
                    <use xlink:href="#path-1"></use>
                </mask>
                <g id="Clip-2"></g>
                <path d="M5.16660542,63.7487252 L46.8333946,63.7487252 L46.8333946,59.4976004 L5.16660542,59.4976004 L5.16660542,63.7487252 Z M28.0833762,41.9322035 C29.3282425,41.1970376 30.1665319,39.8243379 30.1665319,38.2511248 C30.1665319,35.9033029 28.3010698,34 25.9999265,34 C23.6986362,34 21.8331741,35.9033029 21.8331741,38.2511248 C21.8331741,39.8243379 22.6714635,41.1970376 23.9166238,41.9322035 L23.9166238,55.2464756 L1,55.2464756 L1,68 L51,68 L51,55.2464756 L28.0833762,55.2464756 L28.0833762,41.9322035 Z" id="Fill-1" fill="#FFFFFF" mask="url(#mask-2)"></path>
                <path d="M48,16.1757397 C36.4207657,5.27463601 17.5795337,5.27477692 6,16.1760215 L9.00013898,19 C18.9412331,9.64136176 35.0590663,9.64136176 45.0001604,19 L48,16.1757397 Z" id="Fill-3" fill="#FFFFFF" mask="url(#mask-2)"></path>
                <path d="M41,22.0661322 C32.7290202,13.9779072 19.2708301,13.9779072 11,22.0664249 L14.0001048,25 C20.6272756,18.5189989 31.3727244,18.5192916 37.9998952,25 L41,22.0661322 Z" id="Fill-4" fill="#FFFFFF" mask="url(#mask-2)"></path>
                <path d="M17,28.8760562 L19.8334276,32 C22.962849,28.5493693 28.037151,28.5493693 31.1668551,32 L34,28.8760562 C29.3131475,23.7079813 21.6869938,23.7079813 17,28.8760562" id="Fill-5" fill="#FFFFFF" mask="url(#mask-2)"></path>
                <path d="M50.0554005,14 L53,11.0388848 C45.921503,3.92047865 36.5102428,0 26.4997797,0 C16.4894634,0 7.07835007,3.92047865 0,11.0385894 L2.9445995,13.9998523 C15.9537211,0.916964766 37.046132,0.917112497 50.0554005,14" id="Fill-6" fill="#FFFFFF" mask="url(#mask-2)"></path>
            </g>
        </g>
    </g>
</svg>