<svg xmlns="http://www.w3.org/2000/svg" viewBox="0 0 176.58 125"><defs><style>.cls-1,.cls-2{fill:#fff;}.cls-1{opacity:0.2;}</style></defs><title>SwipeAn</title><g id="Layer_2" data-name="Layer 2"><g id="Over"><circle class="cls-1" cx="90.26" cy="14.86" r="14.86"/><path class="cls-2" d="M145.74,63.61l-4.33-14.88a5.6,5.6,0,0,0-11,1.66l-.88-3c-.68-2.92-4-4.7-7.38-3.95a6.42,6.42,0,0,0-4.78,4.06l-.47-1.61c-.68-2.92-4-4.7-7.38-3.95a6.33,6.33,0,0,0-4.9,4.47L97.23,17.17S95.85,11,90.06,12.75c-7.18,2.18-5.37,10-5.37,10L96.54,76.94S90.91,68.71,85.48,64.1s-12,2.16-12,2.16S85.89,86.74,91.4,95.63c6.7,10.83,20.38,11.21,20.38,11.21L119.4,125s38.11,0,38.26,0L144.82,98C152.44,87.37,146.38,66.36,145.74,63.61Z"/><path class="cls-2" d="M20,30.52q-9-7.19-17.44-15l-.3,2.36A93.09,93.09,0,0,0,19,4.48a1.5,1.5,0,0,0-2.12-2.12A89.69,89.69,0,0,1,.74,15.27a1.52,1.52,0,0,0-.3,2.36q8.45,7.82,17.44,15c1.49,1.19,3.63-.92,2.12-2.12Z"/><path class="cls-2" d="M157.07,3.35C162.7,8,168.38,12.6,174,17.24l.3-2.36c-6,4.24-11.68,8.94-17.7,13.15-1.57,1.1-.07,3.7,1.51,2.59,6-4.21,11.69-8.91,17.7-13.15a1.52,1.52,0,0,0,.3-2.36c-5.63-4.65-11.31-9.23-16.94-13.89-1.48-1.22-3.61.89-2.12,2.12Z"/><path class="cls-2" d="M2.52,18.09H54.89a1.5,1.5,0,0,0,0-3H2.52a1.5,1.5,0,0,0,0,3Z"/><path class="cls-2" d="M173.58,14.25H121.5a1.5,1.5,0,0,0,0,3h52.07a1.5,1.5,0,0,0,0-3Z"/></g></g></svg>