<?xml version="1.0" encoding="UTF-8"?>
<svg width="46px" height="36px" viewBox="0 0 46 36" version="1.1" xmlns="http://www.w3.org/2000/svg" xmlns:xlink="http://www.w3.org/1999/xlink">
    <!-- Generator: Sketch 51.2 (57519) - http://www.bohemiancoding.com/sketch -->
    <title>camera</title>
    <desc>Created with Sketch.</desc>
    <defs></defs>
    <g id="Design" stroke="none" stroke-width="1" fill="none" fill-rule="evenodd">
        <g id="Scan-&amp;-Go-0" transform="translate(-15.000000, -550.000000)" fill="#333333">
            <g id="Scanner-options-Copy">
                <g id="Scanner" transform="translate(0.000000, 524.000000)">
                    <g id="camera" transform="translate(15.000000, 26.000000)">
                        <g>
                            <path d="M44.4484561,5.66736455 C43.5306413,4.7155934 42.2631829,4.15318318 40.8209026,4.15318318 L33.5657957,4.15318318 L33.5657957,4.06665853 C33.5657957,2.98510041 33.1287411,1.94680462 32.3857482,1.25460742 C31.6427553,0.519147897 30.6375297,0.0865246496 29.5448931,0.0865246496 L16.4332542,0.0865246496 C15.2969121,0.0865246496 14.2916865,0.519147897 13.5486936,1.25460742 C12.8057007,1.99006694 12.3686461,2.98510041 12.3686461,4.06665853 L12.3686461,4.15318318 L5.15724466,4.15318318 C3.71496437,4.15318318 2.44750594,4.7155934 1.52969121,5.66736455 C0.611876485,6.57587337 2.84217094e-14,7.87374311 2.84217094e-14,9.2581375 L2.84217094e-14,30.8027752 C2.53162495e-14,32.230432 0.568171021,33.4850394 1.52969121,34.3935482 C2.44750594,35.302057 3.75866983,35.9077296 5.15724466,35.9077296 L40.8209026,35.9077296 C42.2631829,35.9077296 43.5306413,35.3453194 44.4484561,34.3935482 C45.3662708,33.4850394 45.9781473,32.1871696 45.9781473,30.8027752 L45.9781473,9.2581375 C45.9781473,7.83048079 45.4099762,6.57587337 44.4484561,5.66736455 Z M43.7054632,30.8027752 L43.6617577,30.8027752 C43.6617577,31.5814971 43.3558195,32.2736943 42.8313539,32.7928422 C42.3068884,33.3119901 41.607601,33.6148264 40.8209026,33.6148264 L5.15724466,33.6148264 C4.37054632,33.6148264 3.67125891,33.3119901 3.14679335,32.7928422 C2.62232779,32.2736943 2.31638955,31.5814971 2.31638955,30.8027752 L2.31638955,9.2581375 C2.31638955,8.47941566 2.62232779,7.78721846 3.14679335,7.26807056 C3.67125891,6.74892267 4.37054632,6.44608639 5.15724466,6.44608639 L13.592399,6.44608639 C14.247981,6.44608639 14.7724466,5.9269385 14.7724466,5.27800362 L14.7724466,4.02339621 C14.7724466,3.54751063 14.9472684,3.11488738 15.2532067,2.81205111 C15.5591449,2.50921484 15.9961995,2.33616554 16.4769596,2.33616554 L29.5448931,2.33616554 C30.0256532,2.33616554 30.4627078,2.50921484 30.7686461,2.81205111 C31.0745843,3.11488738 31.2494062,3.54751063 31.2494062,4.02339621 L31.2494062,5.27800362 C31.2494062,5.9269385 31.7738717,6.44608639 32.4294537,6.44608639 L40.8646081,6.44608639 C41.6513064,6.44608639 42.3505938,6.74892267 42.8750594,7.26807056 C43.3995249,7.78721846 43.7054632,8.47941566 43.7054632,9.2581375 L43.7054632,30.8027752 Z" id="Shape" fill-rule="nonzero"></path>
                            <path d="M22.9890736,9.38792448 C20.0171021,9.38792448 17.3073634,10.5992696 15.384323,12.5028119 C13.4175772,14.4496165 12.2375297,17.0886183 12.2375297,20.0304564 C12.2375297,22.9722945 13.4612827,25.6545586 15.384323,27.5581009 C17.3510689,29.5049055 20.0171021,30.6729883 22.9890736,30.6729883 C25.9610451,30.6729883 28.6707838,29.4616432 30.5938242,27.5581009 C32.5605701,25.6112963 33.7406176,22.9722945 33.7406176,20.0304564 C33.7406176,17.0886183 32.5168646,14.4063542 30.5938242,12.5028119 C28.6707838,10.5992696 25.9610451,9.38792448 22.9890736,9.38792448 Z M28.9330166,25.9573949 C27.4033254,27.4283139 25.3054632,28.3800851 22.9890736,28.3800851 C20.6726841,28.3800851 18.5748219,27.4283139 17.0451306,25.9573949 C15.5154394,24.4432135 14.5976247,22.3666219 14.5976247,20.0737187 C14.5976247,17.7808155 15.5591449,15.7042239 17.0451306,14.1900425 C18.5748219,12.6758612 20.6726841,11.7673523 22.9890736,11.7673523 C25.3054632,11.7673523 27.4033254,12.7191235 28.9330166,14.1900425 C30.4627078,15.7042239 31.3805226,17.7808155 31.3805226,20.0737187 C31.424228,22.3666219 30.4627078,24.4432135 28.9330166,25.9573949 Z" id="Shape" fill-rule="nonzero"></path>
                            <ellipse id="Oval" fill-rule="nonzero" cx="38.5482185" cy="11.4645161" rx="2.1415677" ry="2.11985391"></ellipse>
                        </g>
                    </g>
                </g>
            </g>
        </g>
    </g>
</svg>